<?xml version="1.0" encoding="UTF-8"?>
<svg
  xmlns="http://www.w3.org/2000/svg"
  xmlns:xlink="http://www.w3.org/1999/xlink"
  viewBox="0 0 26 26"
  version="1.1"
>
  <style>
    path {
      fill: darkmagenta;
    }
    @media (prefers-color-scheme: dark) {
      path {
        fill: #e0beff;
      }
    }
  </style>
  <path
    d="M 24.96875 -0.03125 C 24.90625 -0.0273438 24.84375 -0.015625 24.78125 0 C 24.390625 0.09375 24.09375 0.414063 24.03125 0.8125 C 23.660156 2.816406 22.859375 4.601563 21.21875 6.03125 C 20.886719 6.320313 20.507813 6.585938 20.09375 6.84375 C 20.570313 5.601563 21 3.976563 21 2 C 21.007813 1.691406 20.871094 1.398438 20.632813 1.203125 C 20.398438 1.007813 20.082031 0.933594 19.78125 1 C 19.316406 1.105469 18.988281 1.523438 19 2 C 19 5.847656 17.378906 7.925781 17.1875 8.15625 C 16.007813 8.523438 14.632813 8.820313 13 9 C 11.351563 8.816406 9.972656 8.503906 8.78125 8.125 C 8.53125 7.8125 7 5.757813 7 2 C 7.007813 1.691406 6.871094 1.398438 6.632813 1.203125 C 6.398438 1.007813 6.082031 0.933594 5.78125 1 C 5.316406 1.105469 4.988281 1.523438 5 2 C 5 3.976563 5.429688 5.601563 5.90625 6.84375 C 5.5 6.589844 5.140625 6.316406 4.8125 6.03125 C 3.15625 4.597656 2.339844 2.808594 1.96875 0.8125 C 1.875 0.269531 1.355469 -0.09375 0.8125 0 C 0.550781 0.0507813 0.320313 0.207031 0.175781 0.429688 C 0.0273438 0.652344 -0.0234375 0.925781 0.03125 1.1875 C 0.460938 3.492188 1.457031 5.761719 3.5 7.53125 C 4.902344 8.742188 6.789063 9.675781 9.21875 10.3125 C 8.910156 10.601563 8.671875 10.953125 8.4375 11.3125 C 5.988281 10.023438 3.394531 9.476563 2 10.59375 C 1.601563 10.992188 4.101563 14 5.5 14 C 6.152344 14 6.800781 13.851563 7.3125 13.6875 C 7.011719 14.585938 6.988281 15.507813 7.1875 16.40625 C 7.789063 18.105469 9.695313 21 10.59375 25 C 10.59375 25 11 26.09375 13 26.09375 C 15 26.09375 15.40625 25 15.40625 25 C 16.304688 21 18.210938 18.207031 18.8125 16.40625 C 19.109375 15.421875 19.101563 14.507813 18.71875 13.71875 C 19.226563 13.902344 19.859375 14.09375 20.5 14.09375 C 21.898438 14.09375 24.398438 11.085938 24 10.6875 C 22.605469 9.476563 20.011719 10.023438 17.5625 11.3125 C 17.332031 10.960938 17.082031 10.632813 16.78125 10.34375 C 19.242188 9.710938 21.128906 8.753906 22.53125 7.53125 C 24.566406 5.761719 25.542969 3.484375 25.96875 1.1875 C 26.035156 0.886719 25.960938 0.570313 25.765625 0.335938 C 25.570313 0.0976563 25.277344 -0.0390625 24.96875 -0.03125 Z M 9.40625 14.375 C 9.667969 14.414063 9.9375 14.5625 10.1875 14.8125 C 10.6875 15.3125 10.710938 16.007813 10.3125 16.40625 C 9.914063 16.804688 9.3125 16.6875 8.8125 16.1875 C 8.3125 15.6875 8.289063 14.992188 8.6875 14.59375 C 8.886719 14.394531 9.144531 14.335938 9.40625 14.375 Z M 16.6875 14.375 C 16.949219 14.335938 17.207031 14.394531 17.40625 14.59375 C 17.707031 14.992188 17.585938 15.695313 17.1875 16.09375 C 16.6875 16.59375 16.085938 16.710938 15.6875 16.3125 C 15.289063 15.914063 15.40625 15.3125 15.90625 14.8125 C 16.15625 14.5625 16.425781 14.414063 16.6875 14.375 Z M 12 22 L 14 22 C 14.5 22 14.792969 22.507813 14.59375 22.90625 L 14.1875 23.6875 C 14.085938 23.886719 13.886719 24 13.6875 24 L 12.5 24 C 12.300781 24 12.101563 23.886719 12 23.6875 L 11.59375 22.90625 C 11.195313 22.507813 11.5 22 12 22 Z "
  />
</svg>
